<svg width="20" height="19" viewBox="0 0 20 19" fill="none" xmlns="http://www.w3.org/2000/svg">
<path fill-rule="evenodd" clip-rule="evenodd" d="M1.51472 17.6778C1.1242 17.2873 1.1242 16.6541 1.51472 16.2636L17.0711 0.707247C17.4616 0.316724 18.0948 0.316723 18.4853 0.707247C18.8758 1.09777 18.8758 1.73094 18.4853 2.12146L2.92894 17.6778C2.53841 18.0683 1.90525 18.0683 1.51472 17.6778Z" fill="white"/>
<path fill-rule="evenodd" clip-rule="evenodd" d="M18.4853 17.6778C18.8758 17.2873 18.8758 16.6541 18.4853 16.2636L2.92893 0.707247C2.5384 0.316724 1.90524 0.316723 1.51471 0.707247C1.12419 1.09777 1.12419 1.73094 1.51471 2.12146L17.0711 17.6778C17.4616 18.0683 18.0948 18.0683 18.4853 17.6778Z" fill="white"/>
</svg>
