<svg width="56" height="56" viewBox="0 0 56 56" fill="none" xmlns="http://www.w3.org/2000/svg">
<path d="M44.52 15.4002C42.84 12.6002 39.76 11.2002 36.4 11.2002H19.6C16.24 11.2002 13.16 12.6002 11.48 15.4002C5.03998 25.2002 3.63998 40.0402 8.11998 43.1202C12.6 46.2002 22.68 32.7602 28 32.7602C33.32 32.7602 43.12 46.2002 47.88 43.1202C52.36 40.0402 50.96 25.2002 44.52 15.4002V15.4002ZM22.4 25.2002H19.6V28.0002H16.8V25.2002H14V22.4002H16.8V19.6002H19.6V22.4002H22.4V25.2002ZM37.52 26.6002C37.52 28.0002 36.4 29.1202 35 29.1202C33.6 29.1202 32.48 28.0002 32.48 26.6002C32.48 25.2002 33.6 24.0802 35 24.0802C36.4 24.0802 37.52 25.2002 37.52 26.6002ZM42.84 21.0002C42.84 22.4002 41.72 23.5202 40.32 23.5202C38.92 23.5202 37.8 22.4002 37.8 21.0002C37.8 19.6002 38.92 18.4802 40.32 18.4802C41.72 18.4802 42.84 19.6002 42.84 21.0002Z" fill="url(#paint0_linear_727_11884)"/>
<defs>
<linearGradient id="paint0_linear_727_11884" x1="5.83296" y1="18.0169" x2="37.8238" y2="52.3789" gradientUnits="userSpaceOnUse">
<stop stop-color="#080119"/>
<stop offset="0.521662" stop-color="#F92363"/>
<stop offset="1" stop-color="#2723FF"/>
</linearGradient>
</defs>
</svg>
