<svg width="36" height="37" viewBox="0 0 36 37" fill="none" xmlns="http://www.w3.org/2000/svg">
<circle cx="18" cy="18.0491" r="18" fill="#F82363"/>
<path d="M21.402 27.0491V20.0831H23.735L24.084 17.3751H21.402V15.6471C21.402 14.8631 21.62 14.3281 22.744 14.3281H24.178V11.9061C23.4838 11.8324 22.7861 11.7967 22.088 11.7991C20.021 11.7991 18.606 13.0611 18.606 15.3791V17.3751H16.268V20.0831H18.606V27.0491H10C9.73478 27.0491 9.48043 26.9437 9.29289 26.7562C9.10536 26.5686 9 26.3143 9 26.0491V10.0491C9 9.78386 9.10536 9.5295 9.29289 9.34197C9.48043 9.15443 9.73478 9.04907 10 9.04907H26C26.2652 9.04907 26.5196 9.15443 26.7071 9.34197C26.8946 9.5295 27 9.78386 27 10.0491V26.0491C27 26.3143 26.8946 26.5686 26.7071 26.7562C26.5196 26.9437 26.2652 27.0491 26 27.0491H21.402Z" fill="white"/>
</svg>
