<svg width="24" height="24" viewBox="0 0 24 24" fill="none" xmlns="http://www.w3.org/2000/svg">
<g clip-path="url(#clip0_703_11379)">
<path d="M11.9996 1.872C14.7851 1.872 17.2886 2.8335 18.9746 4.563C20.3619 4.74342 21.6706 5.30994 22.7516 6.198C20.8601 2.223 16.9421 0 11.9996 0C7.12463 0 3.17963 2.22 1.26562 6.183C2.25673 5.37407 3.43901 4.83329 4.69913 4.6125C6.35363 2.808 8.96063 1.872 11.9996 1.872Z" fill="white"/>
<path d="M17.9999 18C16.4391 18.0018 14.9394 17.3935 13.8209 16.305L13.8179 16.302C13.6886 16.2049 13.5499 16.1209 13.4039 16.0515C12.9642 15.8474 12.4845 15.7444 11.9999 15.75C11.3789 15.75 10.9064 15.9045 10.5974 16.0515C10.4508 16.1209 10.3116 16.2048 10.1819 16.302L10.1789 16.305C9.47359 16.9897 8.6109 17.4906 7.66664 17.7637C6.72238 18.0369 5.72548 18.0738 4.7636 17.8713C3.80172 17.6689 2.90431 17.2332 2.15029 16.6026C1.39627 15.9719 0.808724 15.1657 0.439321 14.2548C0.0699188 13.3439 -0.0700282 12.3562 0.0317854 11.3785C0.133599 10.4009 0.474055 9.46317 1.02322 8.64791C1.57238 7.83266 2.31343 7.16482 3.1812 6.7031C4.04898 6.24139 5.0169 5.99994 5.99986 6H17.9999C19.5912 6 21.1173 6.63214 22.2425 7.75736C23.3677 8.88258 23.9999 10.4087 23.9999 12C23.9999 13.5913 23.3677 15.1174 22.2425 16.2426C21.1173 17.3679 19.5912 18 17.9999 18Z" fill="white"/>
</g>
<defs>
<clipPath id="clip0_703_11379">
<rect width="24" height="24" fill="white"/>
</clipPath>
</defs>
</svg>
