<svg width="36" height="37" viewBox="0 0 36 37" fill="none" xmlns="http://www.w3.org/2000/svg">
<circle cx="18" cy="18.0491" r="18" fill="#F82363"/>
<path d="M24.335 24.3881H21.67V20.2111C21.67 19.2151 21.65 17.9331 20.28 17.9331C18.891 17.9331 18.679 19.0171 18.679 20.1381V24.3881H16.013V15.7991H18.573V16.9691H18.608C18.966 16.2951 19.836 15.5821 21.136 15.5821C23.836 15.5821 24.336 17.3601 24.336 19.6731V24.3881H24.335ZM13.003 14.6241C12.7996 14.6243 12.5981 14.5844 12.4101 14.5067C12.2221 14.4289 12.0513 14.3148 11.9075 14.1709C11.7636 14.027 11.6497 13.8561 11.572 13.6681C11.4944 13.48 11.4546 13.2785 11.455 13.0751C11.4552 12.7689 11.5462 12.4697 11.7164 12.2152C11.8867 11.9608 12.1286 11.7625 12.4115 11.6455C12.6945 11.5285 13.0057 11.4981 13.306 11.558C13.6062 11.6179 13.882 11.7655 14.0983 11.9822C14.3147 12.1988 14.4619 12.4747 14.5215 12.7751C14.581 13.0754 14.5501 13.3866 14.4328 13.6694C14.3154 13.9522 14.1169 14.1938 13.8622 14.3637C13.6075 14.5337 13.3082 14.6243 13.002 14.6241H13.003ZM14.339 24.3881H11.666V15.7991H14.34V24.3881H14.339ZM25.67 9.04907H10.329C9.593 9.04907 9 9.62907 9 10.3461V25.7521C9 26.4691 9.594 27.0491 10.328 27.0491H25.666C26.4 27.0491 27 26.4691 27 25.7521V10.3461C27 9.62907 26.4 9.04907 25.666 9.04907H25.669H25.67Z" fill="white"/>
</svg>
