<svg width="170" height="44" viewBox="0 0 170 44" fill="none" xmlns="http://www.w3.org/2000/svg">
<path fill-rule="evenodd" clip-rule="evenodd" d="M23.5374 0.230469C15.9965 0.230469 8.9139 4.12377 4.84963 10.4493C5.28648 10.4042 5.72903 10.4063 6.1581 10.4512C10.1048 4.72556 16.5842 1.3166 23.5374 1.3166C30.487 1.3166 36.9643 4.72556 40.9148 10.4472C41.1206 10.4277 41.334 10.416 41.5436 10.416C41.7708 10.416 41.9981 10.4277 42.2253 10.4532C38.1611 4.12567 31.0783 0.230469 23.5374 0.230469ZM15.9183 41.9633C15.7773 42.057 15.6282 42.141 15.4774 42.2133C15.1857 42.3559 14.8585 42.4694 14.5022 42.5513C6.51256 38.9823 1.35737 31.0686 1.35737 22.35C1.35737 20.7813 1.52392 19.2127 1.85492 17.689C2.17019 17.1869 2.4993 16.7552 2.86369 16.3743C3.06724 16.1593 3.27874 15.968 3.49423 15.8058C3.21614 16.6496 2.99097 17.5171 2.82443 18.3941C2.57367 19.6834 2.44828 21.0138 2.44828 22.35C2.44828 24.6122 2.80679 26.8353 3.51377 28.9569C4.17198 30.9377 5.12592 32.815 6.35397 34.5322C6.54783 34.8037 6.72804 35.044 6.90444 35.2667C9.26646 38.2848 12.3709 40.59 15.9183 41.9633ZM32.5593 42.5553C40.5546 38.99 45.7158 31.0723 45.7158 22.35C45.7158 20.8068 45.5551 19.2655 45.236 17.7728C44.903 17.2279 44.5562 16.7707 44.1822 16.38C43.99 16.1768 43.7923 15.9971 43.5907 15.8408C43.8707 16.6907 44.094 17.56 44.2584 18.4333C44.5033 19.7205 44.6268 21.0391 44.6268 22.35C44.6268 24.5868 44.2742 26.7903 43.5789 28.9001C42.9129 30.92 41.9434 32.8267 40.6957 34.5653C40.5194 34.8094 40.351 35.0341 40.1826 35.2509C37.8105 38.2868 34.6943 40.5998 31.1335 41.9731C31.2723 42.0609 31.4155 42.143 31.5623 42.2132C31.864 42.3617 32.1989 42.4751 32.5593 42.5553ZM27.7156 21.6292C27.3485 22.4918 26.5055 23.0119 25.6187 23.0119C25.3544 23.0119 25.0881 22.9679 24.8273 22.871L28.3749 20.0854L27.7156 21.6292ZM21.5221 23.0119C20.6335 23.0119 19.7906 22.4918 19.4235 21.6292L18.7659 20.0854L22.3117 22.871C22.0528 22.9679 21.7848 23.0119 21.5221 23.0119ZM45.4532 14.7616C45.0971 14.2837 44.6859 13.8332 44.2065 13.4449C43.7254 13.0603 43.1728 12.7381 42.5594 12.5383C41.9481 12.3388 41.276 12.2693 40.6151 12.3589C39.9522 12.445 39.3094 12.6886 38.7457 13.0456C38.1783 13.4009 37.6861 13.8642 37.2787 14.3825C36.8728 14.9045 36.5496 15.4833 36.3 16.0875C36.0539 16.6938 35.8794 17.3237 35.771 17.9629C35.7454 18.1221 35.7215 18.2834 35.7032 18.4426C35.6965 18.4912 35.6919 18.5398 35.6872 18.5883L35.6872 18.5885C35.6841 18.6205 35.6811 18.6525 35.6774 18.6844L35.6553 18.9116C35.6259 19.1771 35.5949 19.4408 35.547 19.6917C35.5012 19.9463 35.4424 20.1899 35.3708 20.4224C35.3028 20.6551 35.2184 20.871 35.1211 21.0652C34.9283 21.4571 34.6841 21.7355 34.4343 21.8838C34.3076 21.9625 34.1735 22.0101 34.0267 22.0449C33.8799 22.0798 33.7109 22.0925 33.529 22.0889C33.1618 22.0817 32.7304 21.9882 32.2895 21.8399C31.8489 21.6879 31.3972 21.4809 30.9546 21.2374C30.7343 21.1165 30.5159 20.9864 30.3028 20.8491C30.2201 20.796 30.1395 20.7429 30.0586 20.6878C30.4809 19.7742 30.7178 18.7558 30.7178 17.6827C30.7178 13.7086 27.4861 10.4873 23.5016 10.4873C19.517 10.4873 16.2872 13.7086 16.2872 17.6827C16.2872 18.7633 16.5258 19.787 16.9537 20.7063C16.8819 20.7558 16.8103 20.8032 16.737 20.8491C16.5239 20.9864 16.3055 21.1165 16.0852 21.2374C15.6426 21.4809 15.1909 21.6879 14.7503 21.8399C14.3094 21.9882 13.8779 22.0817 13.5108 22.0889C13.329 22.0925 13.1601 22.0798 13.0131 22.0449C12.8664 22.0101 12.7322 21.9625 12.6056 21.8838C12.3559 21.7355 12.1115 21.4571 11.9187 21.0652C11.8215 20.871 11.7369 20.6551 11.6692 20.4224C11.5976 20.1899 11.5407 19.9463 11.4928 19.6917C11.445 19.4408 11.4139 19.1771 11.3845 18.9116L11.3624 18.6844C11.3589 18.6531 11.3559 18.6218 11.3529 18.5905C11.3481 18.5413 11.3434 18.492 11.3368 18.4426C11.3184 18.2834 11.2946 18.1221 11.2688 17.9629C11.1623 17.3237 10.986 16.6938 10.7399 16.0875C10.4902 15.4833 10.167 14.9045 9.76128 14.3825C9.35365 13.8642 8.86147 13.4009 8.29405 13.0456C7.73044 12.6886 7.08779 12.445 6.42491 12.3589C5.76376 12.2693 5.09188 12.3388 4.48037 12.5383C3.86712 12.7381 3.3144 13.0603 2.83328 13.4449C2.35406 13.8332 1.94281 14.2837 1.58846 14.7616C0.875943 15.7269 0.381852 16.8037 0 17.9043C0.514152 16.8604 1.13674 15.8659 1.92241 15.0437C2.3136 14.6316 2.74698 14.2671 3.21531 13.9779C3.68346 13.6884 4.18844 13.4797 4.7026 13.3826C5.21657 13.2838 5.73816 13.3002 6.22118 13.4285C6.70594 13.5567 7.15385 13.7966 7.53761 14.1134C7.92136 14.4284 8.24649 14.8222 8.50538 15.2544C8.76237 15.6884 8.95347 16.1645 9.08923 16.6571C9.21772 17.1516 9.29313 17.6625 9.31336 18.1808C9.32062 18.3089 9.32062 18.439 9.32062 18.569C9.32062 18.6088 9.31908 18.65 9.3175 18.6917C9.31661 18.7155 9.31571 18.7393 9.31509 18.7633L9.30956 18.972C9.30212 19.2852 9.29866 19.6038 9.31682 19.9298C9.33342 20.2539 9.36645 20.5837 9.42162 20.9186C9.47471 21.2538 9.55565 21.598 9.67135 21.9442C9.78704 22.2923 9.94131 22.6438 10.1523 22.9864C10.3636 23.3287 10.6353 23.6621 10.9658 23.9478C11.2927 24.2353 11.68 24.4642 12.0804 24.6272C12.4806 24.7938 12.892 24.889 13.2886 24.9385C14.0799 25.0374 14.8144 24.9604 15.4994 24.8305C14.866 25.4439 14.1937 26.0117 13.4797 26.4952C12.7561 26.984 11.9903 27.3888 11.1989 27.6343C10.4095 27.8814 9.59231 27.9639 8.79367 27.8155C8.59358 27.7771 8.39505 27.7259 8.19859 27.6617C7.99296 27.5903 7.7856 27.5116 7.58551 27.4237C7.18325 27.2441 6.80123 27.0299 6.44134 26.7772C5.72709 26.2718 5.11938 25.5996 4.69343 24.8029C4.2654 24.0064 4.01395 23.0943 3.96431 22.1567C3.94045 21.6898 3.96621 21.2155 4.05805 20.7484C4.10215 20.5157 4.16631 20.2868 4.2526 20.0634C4.3408 19.8437 4.45114 19.6257 4.60713 19.4408C4.4233 19.6002 4.27855 19.8035 4.15351 20.0158C4.03055 20.2301 3.93145 20.4572 3.84689 20.6897C3.67792 21.1568 3.57693 21.6475 3.52556 22.1457C3.42647 23.14 3.54217 24.1748 3.88926 25.1527C4.23254 26.1307 4.82573 27.0409 5.59307 27.779C5.97699 28.1488 6.39914 28.4803 6.84913 28.7659C7.07482 28.9089 7.30258 29.0388 7.54141 29.1652C7.78924 29.2936 8.04813 29.4052 8.31428 29.5004C8.58044 29.5939 8.85593 29.6725 9.13523 29.7293C9.41245 29.7862 9.69521 29.8283 9.97797 29.8483C10.2607 29.8684 10.5454 29.874 10.8281 29.8629C11.1092 29.8502 11.3881 29.8227 11.6653 29.7843C12.7689 29.6194 13.8083 29.2568 14.776 28.8008C15.4884 28.4639 16.166 28.0774 16.8141 27.6525C16.6837 28.0079 16.5352 28.354 16.3698 28.6945C15.8666 29.7201 15.2056 30.6779 14.3352 31.427C13.902 31.8023 13.4209 32.1283 12.8958 32.3958C12.3687 32.6541 11.7976 32.8443 11.2027 32.9818C10.0037 33.2253 8.71464 33.2089 7.44214 32.9909C8.63025 33.4891 9.91917 33.8206 11.2799 33.8627C11.9593 33.8663 12.6497 33.804 13.3346 33.6465C14.0177 33.4799 14.6859 33.2272 15.3194 32.8957C16.5955 32.2329 17.6845 31.2512 18.5916 30.1524C18.6926 30.0297 18.79 29.9033 18.8872 29.7769C18.8633 30.4601 18.9185 31.1467 19.0598 31.8189C19.1718 32.3536 19.3408 32.8774 19.5628 33.37C19.6019 33.46 19.646 33.5491 19.6899 33.6379C19.7058 33.6701 19.7217 33.7023 19.7373 33.7345C19.7631 33.7871 19.7769 33.8129 19.7904 33.8382L19.8053 33.8663C19.8185 33.889 19.8301 33.914 19.8416 33.9388L19.8417 33.9388C19.8478 33.9521 19.854 33.9653 19.8603 33.978C19.9302 34.1336 19.9926 34.3058 20.0441 34.4891C20.2515 35.2251 20.3084 36.0768 20.2515 36.9173C20.1963 37.7616 20.0256 38.6113 19.7373 39.4208C19.4491 40.2302 19.0395 41.0049 18.4906 41.6753C17.9434 42.3492 17.2512 42.9149 16.4489 43.3051C15.6482 43.6953 14.7428 43.9022 13.823 43.9497C14.7392 44.0376 15.6904 43.9698 16.6011 43.6842C17.5083 43.4005 18.3638 42.8987 19.0855 42.241C19.8089 41.5854 20.3983 40.787 20.8611 39.9227C21.322 39.0582 21.6616 38.1278 21.8747 37.1573C22.0859 36.1848 22.1869 35.1777 22.0601 34.1081C22.0271 33.8388 21.9774 33.5679 21.8986 33.2876C21.8922 33.2657 21.8862 33.2438 21.8801 33.2217L21.8801 33.2217C21.867 33.1738 21.8537 33.1253 21.8361 33.0751C21.8286 33.0519 21.82 33.0267 21.8116 33.0023C21.7955 32.9555 21.7803 32.9113 21.7754 32.8883C21.7659 32.8505 21.7553 32.8131 21.7449 32.7758C21.7295 32.7209 21.7142 32.6664 21.7021 32.612C21.6141 32.2401 21.57 31.8665 21.5645 31.491C21.5588 31.1138 21.592 30.7366 21.6597 30.363C21.6691 30.2971 21.6838 30.2312 21.6985 30.1689C21.7002 30.167 21.7002 30.1651 21.7002 30.1634C21.772 29.8831 21.9077 29.6268 22.0914 29.4126C22.4366 29.0078 22.9544 28.7495 23.531 28.7495C24.102 28.7495 24.6143 29.0022 24.9595 29.4015C25.099 29.5607 25.2111 29.7458 25.2901 29.9473C25.3707 30.1505 25.4167 30.3702 25.4205 30.6029C25.4608 30.8977 25.481 31.1945 25.4755 31.491C25.47 31.8665 25.4259 32.2401 25.3378 32.612C25.3257 32.667 25.3102 32.7221 25.2945 32.7776L25.2945 32.7777C25.2842 32.8144 25.2738 32.8512 25.2643 32.8883C25.2569 32.9233 25.2275 33.0075 25.2038 33.0751C25.1861 33.1256 25.1726 33.1744 25.1594 33.2227C25.1534 33.2444 25.1475 33.266 25.1412 33.2876C25.0624 33.5679 25.0127 33.8388 24.9799 34.1081C24.8529 35.1777 24.9539 36.1848 25.1653 37.1573C25.3781 38.1278 25.7178 39.0582 26.1787 39.9227C26.6415 40.787 27.2328 41.5854 27.9563 42.241C28.6761 42.8987 29.5317 43.4005 30.4406 43.6842C31.3496 43.9698 32.3008 44.0376 33.217 43.9497C32.297 43.9022 31.3937 43.6953 30.5911 43.3051C29.7886 42.9149 29.0964 42.3492 28.5492 41.6753C28.0003 41.0049 27.5926 40.2302 27.3024 39.4208C27.0161 38.6113 26.8435 37.7616 26.7885 36.9173C26.7316 36.0768 26.7885 35.2251 26.9958 34.4891C27.0474 34.3058 27.1096 34.1336 27.1812 33.978L27.1921 33.9538C27.2052 33.9242 27.2188 33.8935 27.2347 33.8663L27.2488 33.8397L27.2488 33.8396C27.2625 33.8139 27.2762 33.7881 27.3024 33.7345C27.3182 33.702 27.3343 33.6696 27.3504 33.6371C27.3942 33.5485 27.4381 33.4597 27.4769 33.37C27.699 32.8774 27.8681 32.3536 27.98 31.8189C28.1232 31.1467 28.1765 30.4601 28.1526 29.7769L28.1584 29.7843L28.1585 29.7844C28.2539 29.9083 28.3492 30.0322 28.4501 30.1524C29.3553 31.2512 30.4443 32.2329 31.7204 32.8957C32.3539 33.2272 33.0223 33.4799 33.7054 33.6465C34.3902 33.804 35.0806 33.8663 35.7601 33.8627C37.1208 33.8206 38.4097 33.4891 39.5976 32.9909C38.3253 33.2089 37.0362 33.2253 35.8372 32.9818C35.2421 32.8443 34.673 32.6541 34.1441 32.3958C33.6191 32.1283 33.138 31.8023 32.7048 31.427C31.8342 30.6779 31.1732 29.7201 30.6701 28.6945C30.5048 28.354 30.358 28.0079 30.2258 27.6525C30.8757 28.0774 31.5516 28.4639 32.2639 28.8008C33.2317 29.2568 34.2709 29.6194 35.3763 29.7843C35.6518 29.8227 35.9308 29.8502 36.2118 29.8629C36.4946 29.874 36.7791 29.8684 37.062 29.8483C37.3447 29.8283 37.6273 29.7862 37.9047 29.7293C38.1839 29.6725 38.4594 29.5939 38.7255 29.5004C38.9917 29.4052 39.2506 29.2936 39.4986 29.1652C39.7374 29.0388 39.9669 28.9089 40.1908 28.7659C40.6406 28.4803 41.063 28.1488 41.4467 27.779C42.2142 27.0409 42.8074 26.1307 43.1507 25.1527C43.4978 24.1748 43.6135 23.14 43.5144 22.1457C43.463 21.6475 43.362 21.1568 43.1929 20.6897C43.1085 20.4572 43.0094 20.2301 42.8865 20.0158C42.7614 19.8035 42.6163 19.6002 42.4328 19.4408C42.5888 19.6257 42.6992 19.8437 42.7872 20.0634C42.8735 20.2868 42.9378 20.5157 42.9817 20.7484C43.0737 21.2155 43.0993 21.6898 43.0755 22.1567C43.0258 23.0943 42.7744 24.0064 42.3465 24.8029C41.9206 25.5996 41.3127 26.2718 40.5984 26.7772C40.2405 27.0299 39.8565 27.2441 39.4545 27.4237C39.2544 27.5116 39.0468 27.5903 38.8412 27.6617C38.6447 27.7259 38.4464 27.7771 38.2463 27.8155C37.4475 27.9639 36.6305 27.8814 35.8409 27.6343C35.0495 27.3888 34.2837 26.984 33.5603 26.4952C32.8461 26.0117 32.1738 25.4439 31.5403 24.8305C32.2254 24.9604 32.9599 25.0374 33.7512 24.9385C34.1478 24.889 34.5592 24.7938 34.9596 24.6272C35.3597 24.4642 35.7471 24.2353 36.0759 23.9478C36.4045 23.6621 36.6762 23.3287 36.8875 22.9864C37.0987 22.6438 37.2527 22.2923 37.3684 21.9442C37.4841 21.598 37.5651 21.2538 37.6183 20.9186C37.6752 20.5837 37.7065 20.2539 37.723 19.9298C37.7413 19.6038 37.7377 19.2852 37.7302 18.972L37.7249 18.7633C37.7245 18.7489 37.724 18.7345 37.7234 18.7202C37.7232 18.7127 37.7229 18.7051 37.7226 18.6976C37.721 18.6538 37.7193 18.6106 37.7193 18.569C37.7193 18.439 37.7211 18.3089 37.7266 18.1808C37.7468 17.6625 37.8221 17.1516 37.9525 16.6571C38.0865 16.1645 38.2774 15.6884 38.5346 15.2544C38.7935 14.8222 39.1186 14.4284 39.5022 14.1134C39.8859 13.7966 40.334 13.5567 40.8188 13.4285C41.3018 13.3002 41.8232 13.2838 42.3374 13.3826C42.8515 13.4797 43.3563 13.6884 43.8245 13.9779C44.2928 14.2671 44.7262 14.6316 45.1174 15.0437C45.9032 15.8659 46.5258 16.8604 47.0398 17.9043C46.6597 16.8037 46.164 15.7269 45.4532 14.7616ZM70.3138 31.8171C67.7241 31.7159 65.5605 30.8196 63.8246 29.1274C61.9776 27.3271 61.0546 25.0816 61.0546 22.3903C61.0546 20.6104 61.4672 19.0071 62.2929 17.5817C63.1186 16.1563 64.2826 15.021 65.7838 14.176C67.2856 13.3304 68.917 12.9081 70.6787 12.9081C70.6919 12.9081 70.7049 12.9086 70.7178 12.9091L70.7179 12.9091C70.7309 12.9096 70.7438 12.9101 70.757 12.9101V12.8285C73.3471 12.9296 75.5103 13.8259 77.2467 15.5186C79.0932 17.319 80.0162 19.5645 80.0162 22.2552C80.0162 24.0356 79.6036 25.639 78.7779 27.0639C77.9522 28.4898 76.7887 29.6245 75.287 30.4701C73.7857 31.3152 72.1538 31.7379 70.3921 31.7379C70.3771 31.7379 70.3623 31.7373 70.3475 31.7367C70.3364 31.7362 70.3252 31.7357 70.3138 31.7355V31.8171ZM70.5506 33.9132C70.5932 33.9135 70.6359 33.9136 70.6787 33.9136C70.6945 33.9136 70.71 33.9131 70.7255 33.9126C70.7325 33.9123 70.7395 33.9121 70.7466 33.9119C70.75 33.9118 70.7535 33.9117 70.757 33.9116V33.9101C74.022 33.8401 76.7504 32.7384 78.943 30.6052C81.2101 28.3996 82.3436 25.6814 82.3436 22.4502C82.3436 19.3795 81.4076 16.7586 79.5357 14.5883C77.3748 12.0992 74.4486 10.8138 70.757 10.7349C70.7408 10.7346 70.7248 10.734 70.7088 10.7334C70.6888 10.7326 70.6689 10.7319 70.6487 10.7319C70.6059 10.7319 70.5632 10.732 70.5205 10.7324C70.4778 10.7321 70.435 10.7319 70.3921 10.7319C70.3838 10.7319 70.3756 10.7321 70.3674 10.7324C70.3626 10.7325 70.3578 10.7327 70.353 10.7329C70.3439 10.7333 70.3349 10.7336 70.3257 10.7338C70.3218 10.7339 70.3178 10.7339 70.3138 10.7339V10.7355C67.049 10.8056 64.3208 11.9073 62.1278 14.0408C59.8607 16.2465 58.7272 18.9647 58.7272 22.1954C58.7272 25.2665 59.6632 27.8875 61.5351 30.0572C63.696 32.5464 66.6227 33.8308 70.3138 33.9098V33.9112C70.332 33.9112 70.3501 33.9118 70.3682 33.9124L70.3685 33.9124C70.3865 33.9131 70.4045 33.9137 70.4226 33.9137C70.4525 33.9137 70.4824 33.9136 70.5123 33.9134C70.525 33.9134 70.5378 33.9133 70.5506 33.9132ZM103.002 31.8266C100.215 31.8147 97.9039 30.9153 96.0694 29.1274C94.2229 27.3271 93.2995 25.0816 93.2995 22.3903C93.2995 20.6104 93.7126 19.0071 94.5383 17.5817C95.364 16.1563 96.5274 15.021 98.0292 14.176C99.5304 13.3304 101.162 12.9081 102.924 12.9081C102.933 12.9081 102.943 12.9084 102.952 12.9087L102.963 12.9091C102.976 12.9096 102.989 12.9101 103.002 12.9101V10.7349C102.986 10.7346 102.97 10.734 102.954 10.7334C102.944 10.733 102.934 10.7327 102.924 10.7324C102.914 10.7321 102.904 10.7319 102.894 10.7319C99.48 10.7319 96.6402 11.8347 94.3731 14.0408C92.1056 16.2465 90.9725 18.9647 90.9725 22.1954C90.9725 25.2665 91.908 27.8875 93.7799 30.0572C96.012 32.6278 99.0599 33.9136 102.924 33.9136C102.934 33.9136 102.943 33.9134 102.952 33.9132C102.958 33.913 102.964 33.9128 102.97 33.9126C102.981 33.9122 102.991 33.9118 103.002 33.9116V31.8266ZM111.922 12.9377V10.7774H124.024V12.9377H119.1V33.3584H116.847V12.9377H111.922ZM152.838 11.2877H150.437L159.91 33.3586H160.391L170 11.2877H167.598L160.158 28.3391L152.838 11.2877ZM148.355 33.3584H145.953L138.633 16.307L131.194 33.3584H128.792L138.401 11.2874H138.881L148.355 33.3584Z" fill="#F2F2F2"/>
</svg>
