<svg width="56" height="56" viewBox="0 0 56 56" fill="none" xmlns="http://www.w3.org/2000/svg">
<path d="M18.6666 14.0003V9.33366C18.6666 8.05033 19.124 6.95133 20.0386 6.03666C20.9517 5.12355 22.05 4.66699 23.3333 4.66699H32.6666C33.95 4.66699 35.049 5.12355 35.9636 6.03666C36.8767 6.95133 37.3333 8.05033 37.3333 9.33366V14.0003H46.6666C47.95 14.0003 49.049 14.4577 49.9636 15.3723C50.8767 16.2854 51.3333 17.3837 51.3333 18.667V30.3337H35V25.667H21V30.3337H4.66663V18.667C4.66663 17.3837 5.12396 16.2854 6.03863 15.3723C6.95174 14.4577 8.04996 14.0003 9.33329 14.0003H18.6666ZM23.3333 14.0003H32.6666V9.33366H23.3333V14.0003ZM25.6666 35.0003V30.3337H30.3333V35.0003H25.6666ZM4.66663 35.0003H21V39.667H35V35.0003H51.3333V44.3337C51.3333 45.617 50.8767 46.716 49.9636 47.6307C49.049 48.5438 47.95 49.0003 46.6666 49.0003H9.33329C8.04996 49.0003 6.95174 48.5438 6.03863 47.6307C5.12396 46.716 4.66663 45.617 4.66663 44.3337V35.0003Z" fill="url(#paint0_linear_727_11870)"/>
<defs>
<linearGradient id="paint0_linear_727_11870" x1="5.00012" y1="14.0005" x2="48.0001" y2="49.0005" gradientUnits="userSpaceOnUse">
<stop stop-color="#080119"/>
<stop offset="0.521662" stop-color="#F92363"/>
<stop offset="1" stop-color="#2723FF"/>
</linearGradient>
</defs>
</svg>
