<svg width="36" height="37" viewBox="0 0 36 37" fill="none" xmlns="http://www.w3.org/2000/svg">
<circle cx="18" cy="18.0491" r="18" fill="#F82363"/>
<path d="M28.1618 11.705C27.3984 12.0427 26.5888 12.2645 25.7598 12.363C26.6336 11.8404 27.2875 11.018 27.5998 10.049C26.7798 10.537 25.8808 10.879 24.9438 11.064C24.3144 10.3906 23.4802 9.94396 22.5708 9.79358C21.6614 9.64321 20.7277 9.79749 19.9151 10.2325C19.1024 10.6674 18.4562 11.3587 18.0769 12.1988C17.6976 13.0389 17.6066 13.9808 17.8178 14.878C16.1549 14.7947 14.5281 14.3625 13.0431 13.6097C11.5581 12.8568 10.2479 11.8 9.19781 10.508C8.8261 11.1464 8.63076 11.8722 8.63181 12.611C8.63181 14.061 9.36981 15.342 10.4918 16.092C9.82782 16.0711 9.17844 15.8918 8.59781 15.569V15.621C8.59801 16.5867 8.93218 17.5226 9.54366 18.2701C10.1551 19.0175 11.0063 19.5305 11.9528 19.722C11.3364 19.889 10.6901 19.9137 10.0628 19.794C10.3297 20.6252 10.8498 21.3522 11.5504 21.8731C12.251 22.394 13.0969 22.6828 13.9698 22.699C13.1023 23.3803 12.109 23.884 11.0467 24.1812C9.98439 24.4784 8.87394 24.5633 7.77881 24.431C9.69051 25.6604 11.9159 26.3131 14.1888 26.311C21.8818 26.311 26.0888 19.938 26.0888 14.411C26.0888 14.231 26.0838 14.049 26.0758 13.871C26.8947 13.2792 27.6014 12.546 28.1628 11.706L28.1618 11.705Z" fill="white"/>
</svg>
