<svg width="57" height="54" viewBox="0 0 57 54" fill="none" xmlns="http://www.w3.org/2000/svg">
<path fill-rule="evenodd" clip-rule="evenodd" d="M5.87647 12.4153C10.8013 4.73016 19.3836 0 28.5212 0C37.6588 0 46.2413 4.73247 51.1661 12.4201C50.8907 12.3891 50.6154 12.3749 50.34 12.3749C50.086 12.3749 49.8274 12.3891 49.5781 12.4128C44.7911 5.46131 36.9423 1.31959 28.5212 1.31959C20.0957 1.31959 12.2443 5.46131 7.46199 12.4176C6.94207 12.3631 6.40581 12.3606 5.87647 12.4153ZM18.7547 51.007C18.9374 50.9192 19.1181 50.8171 19.2889 50.7033C14.9904 49.0348 11.2286 46.234 8.36644 42.5672C8.15269 42.2966 7.93433 42.0047 7.69942 41.6749C6.21134 39.5885 5.05541 37.3077 4.25783 34.9011C3.40116 32.3235 2.96674 29.6225 2.96674 26.8742C2.96674 25.2507 3.11867 23.6344 3.42253 22.0679C3.62434 21.0023 3.89718 19.9485 4.23415 18.9233C3.97304 19.1203 3.71675 19.3527 3.4701 19.614C3.02856 20.0767 2.62977 20.6012 2.24774 21.2113C1.84665 23.0625 1.64484 24.9682 1.64484 26.8742C1.64484 37.4667 7.89158 47.0815 17.573 51.4177C18.0047 51.3182 18.4012 51.1803 18.7547 51.007ZM55.3955 26.8742C55.3955 37.4713 49.1414 47.0909 39.4533 51.4225C39.0166 51.3251 38.6106 51.1874 38.2452 51.0069C38.0673 50.9217 37.8937 50.8219 37.7255 50.7152C42.0403 49.0467 45.8163 46.2365 48.6906 42.5481C48.8947 42.2847 49.0989 42.0116 49.3124 41.7151C50.8244 39.6028 51.9991 37.2863 52.8062 34.8321C53.6486 32.2688 54.0759 29.5917 54.0759 26.8742C54.0759 25.2815 53.9263 23.6794 53.6295 22.1155C53.4302 21.0545 53.1597 19.9983 52.8204 18.9658C53.0648 19.1557 53.3043 19.374 53.5371 19.6209C53.9904 20.0955 54.4105 20.6511 54.8142 21.3131C55.2008 23.1266 55.3955 24.9992 55.3955 26.8742ZM31.0432 27.6783C32.1178 27.6783 33.1392 27.0464 33.5841 25.9984L34.3829 24.1227L30.0843 27.5071C30.4003 27.6248 30.723 27.6783 31.0432 27.6783ZM23.5362 25.9984C23.9811 27.0464 25.0025 27.6783 26.0792 27.6783C26.3975 27.6783 26.7223 27.6248 27.036 27.5071L22.7394 24.1227L23.5362 25.9984ZM53.5668 16.0549C54.1477 16.5266 54.646 17.074 55.0775 17.6546C55.9388 18.8273 56.5394 20.1356 57 21.4728C56.3772 20.2046 55.6228 18.9962 54.6705 17.9973C54.1965 17.4966 53.6714 17.0538 53.1039 16.7024C52.5366 16.3508 51.9249 16.0972 51.3019 15.9792C50.6789 15.8591 50.047 15.879 49.4618 16.035C48.8744 16.1907 48.3314 16.4822 47.8664 16.8671C47.4016 17.2498 47.0076 17.7282 46.6939 18.2534C46.3823 18.7806 46.1509 19.359 45.9885 19.9575C45.8305 20.5583 45.7394 21.179 45.7148 21.8087C45.7081 21.9644 45.706 22.1224 45.706 22.2804C45.706 22.331 45.708 22.3835 45.71 22.4367C45.711 22.4632 45.712 22.4898 45.7127 22.5164L45.7192 22.77C45.7282 23.1505 45.7327 23.5376 45.7104 23.9337C45.6905 24.3274 45.6526 24.7281 45.5837 25.1351C45.5191 25.5422 45.421 25.9605 45.2808 26.3811C45.1406 26.804 44.9539 27.2311 44.6981 27.6472C44.442 28.0632 44.1128 28.4683 43.7146 28.8153C43.3162 29.1647 42.8468 29.4427 42.3619 29.6408C41.8768 29.8432 41.3782 29.9589 40.8977 30.019C39.9388 30.1391 39.0488 30.0456 38.2187 29.8878C38.9863 30.633 39.8009 31.3229 40.6664 31.9103C41.5429 32.5042 42.4709 32.996 43.4298 33.2942C44.3867 33.5945 45.3766 33.6947 46.3446 33.5145C46.587 33.4677 46.8274 33.4055 47.0654 33.3275C47.3146 33.2408 47.5661 33.1452 47.8085 33.0384C48.2958 32.8202 48.761 32.5599 49.1948 32.2529C50.0602 31.6389 50.7969 30.8223 51.313 29.8543C51.8314 28.8866 52.1361 27.7784 52.1963 26.6393C52.2252 26.072 52.1942 25.4957 52.0827 24.9282C52.0295 24.6455 51.9515 24.3674 51.847 24.0961C51.7403 23.8291 51.6066 23.5642 51.4176 23.3396C51.6399 23.5332 51.8157 23.7803 51.9672 24.0382C52.1162 24.2985 52.2363 24.5745 52.3386 24.857C52.5435 25.4245 52.6659 26.0207 52.7281 26.6259C52.8482 27.834 52.708 29.0911 52.2874 30.2793C51.8715 31.4675 51.1527 32.5733 50.2227 33.47C49.7576 33.9193 49.2459 34.3221 48.7008 34.6691C48.4295 34.8429 48.1514 35.0007 47.862 35.1543C47.5615 35.3102 47.2478 35.4458 46.9252 35.5614C46.6027 35.675 46.2689 35.7706 45.9307 35.8395C45.5946 35.9087 45.2521 35.9598 44.9095 35.9841C44.5667 36.0086 44.2219 36.0153 43.8793 36.0019C43.5388 35.9864 43.2008 35.9531 42.8669 35.9064C41.5274 35.706 40.2682 35.2655 39.0955 34.7115C38.2323 34.3022 37.4134 33.8326 36.6259 33.3164C36.786 33.7481 36.9639 34.1687 37.1642 34.5824C37.7738 35.8284 38.5748 36.9921 39.6297 37.9022C40.1546 38.3582 40.7376 38.7543 41.3738 39.0793C42.0147 39.393 42.7043 39.6242 43.4254 39.7912C44.8783 40.0871 46.4403 40.0672 47.9821 39.8023C46.5426 40.4075 44.9808 40.8103 43.3319 40.8614C42.5086 40.8658 41.672 40.7901 40.8422 40.5988C40.0144 40.3964 39.2045 40.0894 38.4369 39.6866C36.8905 38.8813 35.5709 37.6887 34.4741 36.3536C34.3518 36.2075 34.2362 36.0569 34.1205 35.9063L34.1137 35.8974C34.1426 36.7274 34.078 37.5617 33.9045 38.3783C33.7689 39.028 33.564 39.6644 33.2949 40.2629C33.2478 40.3719 33.1946 40.4798 33.1415 40.5874C33.122 40.6269 33.1026 40.6663 33.0835 40.7057C33.0517 40.7708 33.035 40.8021 33.0184 40.8334C33.0129 40.8438 33.0074 40.8542 33.0013 40.8658C32.9821 40.899 32.9656 40.9362 32.9497 40.9722C32.9453 40.9821 32.9409 40.992 32.9366 41.0016C32.8498 41.1906 32.7744 41.3998 32.7119 41.6225C32.4607 42.5167 32.3917 43.5515 32.4607 44.5727C32.5273 45.5985 32.7364 46.6308 33.0835 47.6142C33.4351 48.5977 33.929 49.5388 34.5942 50.3534C35.2572 51.1721 36.0961 51.8595 37.0684 52.3335C38.041 52.8075 39.1355 53.059 40.2504 53.1166C39.1401 53.2235 37.9876 53.1411 36.8861 52.7941C35.7847 52.4494 34.748 51.8398 33.8758 51.0407C32.999 50.2442 32.2825 49.2741 31.7218 48.224C31.1633 47.1737 30.7517 46.0434 30.4937 44.8642C30.2377 43.6827 30.1153 42.4591 30.2691 41.1596C30.3089 40.8325 30.3691 40.5033 30.4646 40.1627C30.4722 40.1365 30.4794 40.1103 30.4866 40.0839C30.5027 40.0253 30.5189 39.966 30.5405 39.9045C30.5692 39.8224 30.6048 39.7201 30.6138 39.6776C30.6253 39.6325 30.6379 39.5878 30.6504 39.5432C30.6693 39.4758 30.6881 39.4088 30.7029 39.3419C30.8095 38.8901 30.863 38.4362 30.8697 37.98C30.8764 37.6197 30.8519 37.2591 30.8031 36.9009C30.7984 36.6182 30.7427 36.3513 30.645 36.1044C30.5493 35.8596 30.4135 35.6348 30.2444 35.4414C29.8261 34.9562 29.2054 34.6492 28.5134 34.6492C27.8147 34.6492 27.1873 34.9629 26.769 35.4548C26.5465 35.7151 26.382 36.0265 26.295 36.367C26.295 36.3681 26.295 36.3692 26.2947 36.3704C26.2944 36.3715 26.2939 36.3726 26.2929 36.3737C26.2751 36.4493 26.2573 36.5294 26.246 36.6094C26.1638 37.0634 26.1236 37.5217 26.1305 37.98C26.1372 38.4362 26.1907 38.8901 26.2973 39.3419C26.3119 39.408 26.3305 39.4742 26.3491 39.5409C26.3618 39.5862 26.3746 39.6317 26.3862 39.6776C26.3921 39.7055 26.4105 39.7592 26.43 39.8161C26.4401 39.8458 26.4506 39.8764 26.4597 39.9045C26.481 39.9656 26.4971 40.0245 26.513 40.0827C26.5204 40.1095 26.5277 40.1361 26.5354 40.1627C26.6309 40.5033 26.6911 40.8325 26.7311 41.1596C26.8847 42.4591 26.7623 43.6827 26.5065 44.8642C26.2483 46.0434 25.8367 47.1737 25.2782 48.224C24.7175 49.2741 24.0033 50.2442 23.1267 51.0407C22.2522 51.8398 21.2155 52.4494 20.1162 52.7941C19.0126 53.1411 17.8601 53.2235 16.7498 53.1166C17.8645 53.059 18.9615 52.8075 19.9318 52.3335C20.9039 51.8595 21.7428 51.1721 22.4058 50.3534C23.071 49.5388 23.5672 48.5977 23.9165 47.6142C24.2659 46.6308 24.4727 45.5985 24.5395 44.5727C24.6085 43.5515 24.5395 42.5167 24.2883 41.6225C24.2258 41.3998 24.1502 41.1906 24.0655 41.0016C24.0579 40.9861 24.0504 40.97 24.0429 40.9539C24.029 40.9238 24.0149 40.8934 23.9989 40.8658C23.9925 40.8535 23.9867 40.8426 23.9808 40.8317C23.9644 40.801 23.9477 40.7696 23.9165 40.7057C23.8976 40.6666 23.8783 40.6276 23.859 40.5884C23.8058 40.4805 23.7525 40.3723 23.7051 40.2629C23.436 39.6644 23.2313 39.028 23.0955 38.3783C22.9243 37.5617 22.8574 36.7274 22.8863 35.8974C22.7686 36.051 22.6506 36.2046 22.5282 36.3536C21.4291 37.6887 20.1095 38.8813 18.5631 39.6866C17.7955 40.0894 16.9858 40.3964 16.158 40.5988C15.3282 40.7901 14.4916 40.8658 13.6683 40.8614C12.0195 40.8103 10.4576 40.4075 9.01795 39.8023C10.5599 40.0672 12.1219 40.0871 13.5748 39.7912C14.2957 39.6242 14.9876 39.393 15.6264 39.0793C16.2626 38.7543 16.8456 38.3582 17.3705 37.9022C18.4252 36.9921 19.2262 35.8284 19.836 34.5824C20.0363 34.1687 20.2164 33.7481 20.3744 33.3164C19.5889 33.8326 18.7679 34.3022 17.9047 34.7115C16.732 35.2655 15.4726 35.706 14.1354 35.9064C13.7994 35.9531 13.4614 35.9864 13.1209 36.0019C12.7783 36.0153 12.4333 36.0086 12.0907 35.9841C11.7481 35.9598 11.4054 35.9087 11.0695 35.8395C10.7311 35.7706 10.3973 35.675 10.0748 35.5614C9.75224 35.4458 9.43853 35.3102 9.13823 35.1543C8.84883 35.0007 8.57284 34.8429 8.29937 34.6691C7.7541 34.3221 7.24256 33.9193 6.77734 33.47C5.84753 32.5733 5.12874 31.4675 4.71277 30.2793C4.29218 29.0911 4.15199 27.834 4.27207 26.6259C4.33431 26.0207 4.45669 25.4245 4.66143 24.857C4.7639 24.5745 4.88398 24.2985 5.03297 24.0382C5.18448 23.7803 5.35989 23.5332 5.58265 23.3396C5.39362 23.5642 5.25993 23.8291 5.15305 24.0961C5.04848 24.3674 4.97073 24.6455 4.9173 24.9282C4.80602 25.4957 4.7748 26.072 4.80372 26.6393C4.86386 27.7784 5.16856 28.8866 5.68722 29.8543C6.20336 30.8223 6.93975 31.6389 7.80523 32.2529C8.24132 32.5599 8.70424 32.8202 9.19167 33.0384C9.43413 33.1452 9.68539 33.2408 9.93456 33.3275C10.1726 33.4055 10.4132 33.4677 10.6556 33.5145C11.6234 33.6947 12.6136 33.5945 13.5702 33.2942C14.5291 32.996 15.4571 32.5042 16.3339 31.9103C17.1991 31.3229 18.0137 30.633 18.7813 29.8878C17.9512 30.0456 17.0612 30.1391 16.1023 30.019C15.6218 29.9589 15.1232 29.8432 14.6383 29.6408C14.1532 29.4427 13.6838 29.1647 13.2877 28.8153C12.8872 28.4683 12.558 28.0632 12.3019 27.6472C12.0463 27.2311 11.8594 26.804 11.7192 26.3811C11.579 25.9605 11.4809 25.5422 11.4166 25.1351C11.3497 24.7281 11.3097 24.3274 11.2896 23.9337C11.2676 23.5376 11.2718 23.1505 11.2808 22.77L11.2875 22.5164C11.2882 22.4873 11.2893 22.4583 11.2904 22.4295C11.2923 22.3788 11.2942 22.3287 11.2942 22.2804C11.2942 22.1224 11.2942 21.9644 11.2854 21.8087C11.2609 21.179 11.1695 20.5583 11.0138 19.9575C10.8493 19.359 10.6177 18.7806 10.3063 18.2534C9.9926 17.7282 9.59863 17.2498 9.13362 16.8671C8.66861 16.4822 8.12585 16.1907 7.53846 16.035C6.95316 15.879 6.32113 15.8591 5.69832 15.9792C5.07531 16.0972 4.46339 16.3508 3.89612 16.7024C3.32863 17.0538 2.80348 17.4966 2.32946 17.9973C1.37743 18.9962 0.623018 20.2046 0 21.4728C0.462706 20.1356 1.06141 18.8273 1.9248 17.6546C2.35418 17.074 2.85251 16.5266 3.4332 16.0549C4.01619 15.5876 4.68594 15.1961 5.42904 14.9534C6.17004 14.711 6.98418 14.6265 7.78532 14.7355C8.58856 14.8401 9.36728 15.136 10.0502 15.5697C10.7378 16.0014 11.3342 16.5643 11.8281 17.194C12.3198 17.8282 12.7114 18.5314 13.014 19.2655C13.3122 20.0021 13.5258 20.7674 13.6549 21.5441C13.6861 21.7375 13.715 21.9334 13.7372 22.1268C13.7453 22.1868 13.751 22.2467 13.7567 22.3066C13.7604 22.3446 13.764 22.3826 13.7682 22.4206L13.795 22.6966C13.8307 23.0191 13.8684 23.3396 13.9262 23.6445C13.9843 23.9538 14.0532 24.2497 14.14 24.5322C14.2221 24.8148 14.3246 25.0772 14.4424 25.3132C14.676 25.7893 14.9721 26.1275 15.2747 26.3077C15.4281 26.4033 15.5908 26.4611 15.7685 26.5035C15.9466 26.5458 16.1513 26.5613 16.3716 26.5569C16.8165 26.5481 17.3393 26.4345 17.8735 26.2543C18.4074 26.0697 18.9548 25.8182 19.4911 25.5223C19.758 25.3754 20.0227 25.2174 20.2809 25.0506C20.3697 24.9949 20.4565 24.9372 20.5435 24.8771C20.025 23.7601 19.7358 22.5164 19.7358 21.2035C19.7358 16.3753 23.6496 12.4616 28.4778 12.4616C33.306 12.4616 37.222 16.3753 37.222 21.2035C37.222 22.5074 36.935 23.7446 36.4232 24.8547C36.5213 24.9215 36.6189 24.9861 36.7191 25.0506C36.9773 25.2174 37.242 25.3754 37.5089 25.5223C38.0452 25.8182 38.5926 26.0697 39.1265 26.2543C39.6607 26.4345 40.1835 26.5481 40.6284 26.5569C40.8489 26.5613 41.0536 26.5458 41.2315 26.5035C41.4095 26.4611 41.5719 26.4033 41.7255 26.3077C42.0281 26.1275 42.324 25.7893 42.5576 25.3132C42.6756 25.0772 42.7779 24.8148 42.8602 24.5322C42.947 24.2497 43.0182 23.9538 43.0738 23.6445C43.1318 23.3396 43.1693 23.0191 43.205 22.6966L43.2318 22.4206C43.2362 22.3818 43.2399 22.3429 43.2436 22.3041C43.2493 22.245 43.2549 22.186 43.263 22.1268C43.2852 21.9334 43.3141 21.7375 43.3451 21.5441C43.4765 20.7674 43.688 20.0021 43.9862 19.2655C44.2886 18.5314 44.6802 17.8282 45.1721 17.194C45.6658 16.5643 46.2622 16.0014 46.9498 15.5697C47.6327 15.136 48.4117 14.8401 49.2149 14.7355C50.0158 14.6265 50.8302 14.711 51.571 14.9534C52.3143 15.1961 52.9838 15.5876 53.5668 16.0549Z" fill="#F2F2F2"/>
</svg>
